HIERARCHY
ROOT Hips
{
  OFFSET 0 0 0
  CHANNELS 6 Xposition Yposition Zposition Zrotation Xrotation Yrotation
  JOINT LeftHip
  {
    OFFSET 3.43 -7.10543e-015 2.13163e-014
    CHANNELS 3 Zrotation Xrotation Yrotation
    JOINT LeftKnee
    {
      OFFSET 4.47642e-013 -18.47 2.84217e-014
      CHANNELS 3 Zrotation Xrotation Yrotation
      JOINT LeftAnkle
      {
        OFFSET 1.42109e-012 -17.95 2.04636e-012
        CHANNELS 3 Zrotation Xrotation Yrotation
        End Site
        {
          OFFSET 0 -3.12 0
        }
      }
    }
  }
  JOINT RightHip
  {
    OFFSET -3.43 -1.42109e-014 7.10543e-015
    CHANNELS 3 Zrotation Xrotation Yrotation
    JOINT RightKnee
    {
      OFFSET 2.13163e-013 -18.47 -3.48166e-013
      CHANNELS 3 Zrotation Xrotation Yrotation
      JOINT RightAnkle
      {
        OFFSET -3.67706e-012 -17.95 1.22924e-012
        CHANNELS 3 Zrotation Xrotation Yrotation
        End Site
        {
          OFFSET 0 -3.12 0
        }
      }
    }
  }
  JOINT Chest
  {
    OFFSET -1.42109e-014 4.57 7.10543e-015
    CHANNELS 3 Zrotation Xrotation Yrotation
    JOINT Chest2
    {
      OFFSET -1.06581e-014 6.57 0
      CHANNELS 3 Zrotation Xrotation Yrotation
      JOINT LeftCollar
      {
        OFFSET 1.06 4.19 1.76
        CHANNELS 3 Zrotation Xrotation Yrotation
        JOINT LeftShoulder
        {
          OFFSET 5.81 -2.13163e-014 9.23706e-014
          CHANNELS 3 Zrotation Xrotation Yrotation
          JOINT LeftElbow
          {
            OFFSET 5.7554e-013 -12.08 5.40012e-013
            CHANNELS 3 Zrotation Xrotation Yrotation
            JOINT LeftWrist
            {
              OFFSET 1.70104e-011 -9.82 1.39977e-012
              CHANNELS 3 Zrotation Xrotation Yrotation
              End Site
              {
                OFFSET 0 -7.37 0
              }
            }
          }
        }
      }
      JOINT RightCollar
      {
        OFFSET -1.06 4.19 1.76
        CHANNELS 3 Zrotation Xrotation Yrotation
        JOINT RightShoulder
        {
          OFFSET -6.06 7.10543e-015 -8.52651e-014
          CHANNELS 3 Zrotation Xrotation Yrotation
          JOINT RightElbow
          {
            OFFSET -1.59872e-014 -11.08 -3.97904e-013
            CHANNELS 3 Zrotation Xrotation Yrotation
            JOINT RightWrist
            {
              OFFSET 1.12834e-011 -9.82 -1.84031e-011
              CHANNELS 3 Zrotation Xrotation Yrotation
              End Site
              {
                OFFSET 0 -7.14001 0
              }
            }
          }
        }
      }
      JOINT Neck
      {
        OFFSET -1.42109e-014 4.05 -2.13163e-014
        CHANNELS 3 Zrotation Xrotation Yrotation
        JOINT Head
        {
          OFFSET -3.19744e-014 5.19 -1.42109e-014
          CHANNELS 3 Zrotation Xrotation Yrotation
          End Site
          {
            OFFSET 0 4.14001 0
          }
        }
      }
    }
  }
}
MOTION
Frames:	9
Frame Time:	0.0333333
-24.3426 38.2239 -4.49118 -8.41958 0.466581 -118.44 -7.61198 -10.49 -3.63736 0.235625 32.8854 -20.3281 7.63524 -12.6941 0.850528 -4.94708 -9.58968 -8.90657 -3.60303 47.4923 -8.96628 -1.47939 -24.3709 -0.319478 -2.51868 10.2168 1.48774 -3.65036 5.98555 1.61169 6.48555 0.0374529 2.88824 19.8403 -1.64084 -14.567 -6.35594 -30.3224 -50.6494 9.25672 -5.36892 0.434964 -8.95699 0.362006 -2.21174 -5.89587 -5.82263 29.1554 -1.54054 -11.2516 33.9261 -3.56113 -7.88245 -0.245426 -4.83876 6.51007 -5.03226 4.32818 19.3169 -10.6007 
-24.3767 38.2594 -4.93498 -7.83659 -0.442753 -114.378 -7.10712 -10.8822 -3.73458 -0.157541 32.6193 -24.1966 8.3445 -12.2547 0.897369 -5.40014 -11.743 -7.8393 -4.50596 43.1449 -6.50834 -1.82474 -23.8805 -0.385902 -2.88854 10.7059 1.43292 -4.18241 6.66779 1.51877 6.72598 0.0412254 2.73631 20.3848 -3.48232 -16.3015 -8.63931 -33.3405 -53.1748 10.51 -4.53389 0.417221 -8.96662 0.355962 -2.03189 -4.76391 -6.40864 30.9661 -1.56934 -13.7463 34.9249 -4.38732 -8.57822 -0.329206 -4.18213 6.04282 -5.95121 5.91863 18.4313 -11.9304 
-24.3507 38.2939 -5.40423 -6.97626 -1.22134 -109.963 -6.44642 -11.6211 -3.84634 -0.399486 32.4214 -28.3201 8.86346 -11.7108 0.910778 -6.39447 -13.8232 -6.24693 -4.70912 37.1085 0.731273 4.35156 -16.8757 0.645823 -3.1418 11.2072 1.33241 -4.6226 7.36578 1.37256 7.08772 0.0457805 2.51214 20.948 -6.21246 -18.2459 -10.4648 -34.2254 -54.9519 12.1611 -4.45683 0.475003 -8.95619 0.350684 -1.88445 -4.13838 -6.8663 32.7627 -1.40063 -17.0519 36.9857 -6.16463 -9.03868 -0.487728 -3.33061 5.39674 -7.04132 7.51371 17.3555 -13.3276 
-24.2655 38.297 -5.90582 -5.82518 -1.87783 -105.098 -5.87245 -12.93 -4.19443 -0.298604 32.5722 -32.5343 9.1277 -11.2458 0.900546 -6.8564 -17.2789 -4.30756 -4.44815 34.3537 10.0612 3.9508 -12.4454 0.430945 -3.32062 11.7012 1.08494 -4.87138 8.0566 1.0279 7.55006 0.0490206 2.2022 21.5969 -8.39665 -20.346 -13.1517 -35.8653 -58.2777 14.2936 -4.54163 0.56975 -8.94561 0.345138 -1.72854 -4.152 -7.2976 34.5294 -0.86762 -21.4641 40.18 -9.05217 -9.02781 -0.716112 -2.37708 4.48317 -8.22283 9.03601 16.1117 -14.6693 
-24.136 38.2484 -6.45784 -4.35551 -2.52442 -99.7284 -5.72253 -14.9382 -5.13836 0.345026 33.1275 -36.6677 8.98607 -11.0252 0.869019 -7.18198 -20.0977 -1.78833 -3.99514 32.1934 20.7676 3.66332 -9.85536 0.315947 -3.58985 12.1288 0.601193 -4.86062 8.6747 0.37912 8.16025 0.0502205 1.82039 22.4202 -10.0209 -22.5488 -16.9736 -38.3877 -63.4949 17.0015 -4.61194 0.689684 -8.94137 0.338346 -1.53305 -4.86165 -7.72751 36.2295 0.260983 -26.941 44.3687 -12.8845 -8.21504 -0.929171 -1.38775 3.28929 -9.39445 10.4137 14.712 -15.8199 
-23.9803 38.1597 -7.07351 -2.48268 -3.15712 -93.9668 -6.15252 -17.5623 -7.03565 1.72541 33.7515 -40.4067 8.08982 -11.2006 0.794565 -7.26513 -22.4856 0.527265 -4.01613 31.731 28.4487 3.67849 -9.69709 0.312137 -4.0056 12.4504 -0.12587 -4.60742 9.16172 -0.542672 8.9524 0.0484665 1.40456 23.4285 -11.1233 -24.7257 -22.0733 -41.4073 -70.7683 20.1238 -4.40696 0.782349 -8.93907 0.330214 -1.29751 -6.22022 -8.16163 37.796 2.24453 -33.0126 49.3449 -17.1438 -6.5151 -0.983084 -0.384857 1.8546 -10.4525 11.5744 13.1527 -16.6619 
-23.8033 38.0204 -7.74045 -0.202132 -3.06306 -88.2315 -6.66638 -20.7618 -8.95306 4.03803 34.7881 -43.8601 6.90578 -11.9946 0.726368 -6.48654 -24.894 1.72763 -4.75116 33.2496 30.5696 3.34542 -11.0976 0.325094 -3.92264 12.6724 -0.921624 -4.2071 9.50365 -1.55543 9.84625 0.0416723 0.984746 24.683 -11.8172 -26.7189 -28.5266 -44.5209 -79.8707 23.3584 -3.71035 0.767226 -8.94244 0.321575 -1.04543 -8.1037 -8.66532 39.1546 5.28966 -39.2832 55.055 -21.2015 -4.26008 -0.797665 0.608707 0.218762 -11.293 12.4482 11.4172 -17.1135 
-23.6126 37.8092 -8.43846 2.23056 -2.32556 -83.0432 -7.1828 -24.35 -10.0221 6.49651 36.5317 -45.7226 6.11208 -13.2281 0.709374 -5.31954 -27.815 1.71772 -5.75929 35.841 28.3274 3.11487 -12.6668 0.345806 -3.46416 12.7892 -1.56936 -3.78176 9.70292 -2.41951 10.6588 0.0272216 0.550791 26.2662 -12.2396 -28.3876 -36.1537 -47.2778 -90.092 26.5201 -2.44841 0.577061 -8.98523 0.313326 -0.797117 -10.2923 -9.33222 40.2757 9.46245 -45.2939 61.6115 -24.5611 -1.96098 -0.426906 1.50982 -1.59862 -11.8102 12.9794 9.48154 -17.1276 
-23.3972 37.5196 -9.14461 4.64519 -1.37735 -78.7106 -7.94443 -28.1272 -10.4761 8.75946 38.9535 -43.6119 5.16345 -14.9414 0.677548 -4.39621 -31.5079 1.06527 -6.71754 38.812 24.5825 3.24317 -13.812 0.392916 -3.0232 12.8347 -1.98358 -3.3855 9.80122 -2.97731 11.2424 0.0034798 0.0638158 28.1043 -12.5184 -29.6514 -44.2935 -49.3496 -100.487 29.6002 -0.705801 0.186484 -9.12538 0.305324 -0.547822 -12.5604 -10.2684 41.1818 14.6636 -50.6159 69.033 -26.9904 0.0281071 0.00674544 2.18254 -3.57378 -11.9168 13.1354 7.32069 -16.681 
